<svg width="808" height="307" viewBox="0 0 808 307" fill="none" xmlns="http://www.w3.org/2000/svg">
<g filter="url(#filter0_d_1_34)">
<path d="M4 0H804V199C804 254.228 759.228 299 704 299H104C48.7715 299 4 254.228 4 199V0Z" fill="url(#paint0_linear_1_34)" fill-opacity="0.89" shape-rendering="crispEdges"/>
<path d="M4.5 0.5H803.5V199C803.5 253.952 758.952 298.5 704 298.5H104C49.0477 298.5 4.5 253.952 4.5 199V0.5Z" stroke="black" shape-rendering="crispEdges"/>
</g>
<path d="M144.539 120H140.477V133.672H124.227V120H120.086V152.305H124.227V137.773H140.477V152.305H144.539V120ZM136.414 116.484C139.044 116.484 141.427 116.875 143.562 117.656C145.698 118.438 147.508 119.505 148.992 120.859C150.503 122.214 151.661 123.802 152.469 125.625C153.276 127.422 153.68 129.336 153.68 131.367V155.117C153.68 157.148 153.276 159.076 152.469 160.898C151.661 162.695 150.503 164.271 148.992 165.625C147.508 166.979 145.698 168.047 143.562 168.828C141.427 169.609 139.044 170 136.414 170H124.383C121.753 170 119.37 169.609 117.234 168.828C115.099 168.047 113.276 166.979 111.766 165.625C110.281 164.271 109.135 162.695 108.328 160.898C107.521 159.076 107.117 157.148 107.117 155.117V131.367C107.117 129.336 107.521 127.422 108.328 125.625C109.135 123.802 110.281 122.214 111.766 120.859C113.276 119.505 115.099 118.438 117.234 117.656C119.37 116.875 121.753 116.484 124.383 116.484H136.414ZM167.508 148.164V152.305H190.086V148.164H180.906V124.141H190.086V120H167.508V124.141H176.727V148.164H167.508ZM182.664 116.484C185.294 116.484 187.677 116.875 189.812 117.656C191.948 118.438 193.758 119.505 195.242 120.859C196.753 122.214 197.911 123.802 198.719 125.625C199.526 127.422 199.93 129.336 199.93 131.367V155.117C199.93 157.148 199.526 159.076 198.719 160.898C197.911 162.695 196.753 164.271 195.242 165.625C193.758 166.979 191.948 168.047 189.812 168.828C187.677 169.609 185.294 170 182.664 170H170.633C168.003 170 165.62 169.609 163.484 168.828C161.349 168.047 159.526 166.979 158.016 165.625C156.531 164.271 155.385 162.695 154.578 160.898C153.771 159.076 153.367 157.148 153.367 155.117V131.367C153.367 129.336 153.771 127.422 154.578 125.625C155.385 123.802 156.531 122.214 158.016 120.859C159.526 119.505 161.349 118.438 163.484 117.656C165.62 116.875 168.003 116.484 170.633 116.484H182.664ZM216.883 170C214.253 170 211.87 169.609 209.734 168.828C207.599 168.047 205.776 166.979 204.266 165.625C202.781 164.271 201.635 162.695 200.828 160.898C200.021 159.076 199.617 157.148 199.617 155.117V131.367C199.617 129.336 200.021 127.422 200.828 125.625C201.635 123.802 202.781 122.214 204.266 120.859C205.776 119.505 207.599 118.438 209.734 117.656C211.87 116.875 214.253 116.484 216.883 116.484C219.539 116.484 221.922 116.875 224.031 117.656C226.167 118.438 227.99 119.505 229.5 120.859C231.01 122.214 232.169 123.802 232.977 125.625C233.784 127.422 234.188 129.336 234.188 131.367V155.117C234.188 157.148 233.784 159.076 232.977 160.898C232.169 162.695 231.01 164.271 229.5 165.625C227.99 166.979 226.167 168.047 224.031 168.828C221.922 169.609 219.539 170 216.883 170ZM217.859 157.344L220.242 152.305V147.266H214.344V152.305H216.883L215.359 156.25L217.859 157.344ZM259.617 148.164V152.305H282.195V148.164H273.016V124.141H282.195V120H259.617V124.141H268.836V148.164H259.617ZM274.773 116.484C277.404 116.484 279.786 116.875 281.922 117.656C284.057 118.438 285.867 119.505 287.352 120.859C288.862 122.214 290.021 123.802 290.828 125.625C291.635 127.422 292.039 129.336 292.039 131.367V155.117C292.039 157.148 291.635 159.076 290.828 160.898C290.021 162.695 288.862 164.271 287.352 165.625C285.867 166.979 284.057 168.047 281.922 168.828C279.786 169.609 277.404 170 274.773 170H262.742C260.112 170 257.729 169.609 255.594 168.828C253.458 168.047 251.635 166.979 250.125 165.625C248.641 164.271 247.495 162.695 246.688 160.898C245.88 159.076 245.477 157.148 245.477 155.117V131.367C245.477 129.336 245.88 127.422 246.688 125.625C247.495 123.802 248.641 122.214 250.125 120.859C251.635 119.505 253.458 118.438 255.594 117.656C257.729 116.875 260.112 116.484 262.742 116.484H274.773ZM337.391 152.266V143.359V126.25V122.969L334.734 120.469L330.828 120H321.922L317.352 120.547L318.328 124.805L322 124.062H330.711L333.055 124.57L333.602 126.641V135.742L330.828 135.273H321.922L318.016 135.859L315.516 138.32L314.969 141.523V146.094L315.516 149.375L318.016 151.836L321.922 152.305H330.477L333.523 151.836L337.391 152.266ZM333.602 147.773L330.555 148.164H322.156L319.695 147.773L319.148 145.43V142.07L319.461 139.844L322.156 139.453H330.633L333.602 139.766V145.664V147.773ZM332.586 116.484C335.216 116.484 337.599 116.875 339.734 117.656C341.87 118.438 343.68 119.505 345.164 120.859C346.674 122.214 347.833 123.802 348.641 125.625C349.448 127.422 349.852 129.336 349.852 131.367V155.117C349.852 157.148 349.448 159.076 348.641 160.898C347.833 162.695 346.674 164.271 345.164 165.625C343.68 166.979 341.87 168.047 339.734 168.828C337.599 169.609 335.216 170 332.586 170H320.555C317.924 170 315.542 169.609 313.406 168.828C311.271 168.047 309.448 166.979 307.938 165.625C306.453 164.271 305.307 162.695 304.5 160.898C303.693 159.076 303.289 157.148 303.289 155.117V131.367C303.289 129.336 303.693 127.422 304.5 125.625C305.307 123.802 306.453 122.214 307.938 120.859C309.448 119.505 311.271 118.438 313.406 117.656C315.542 116.875 317.924 116.484 320.555 116.484H332.586ZM378.836 116.484C381.466 116.484 383.849 116.875 385.984 117.656C388.12 118.438 389.93 119.505 391.414 120.859C392.924 122.214 394.083 123.802 394.891 125.625C395.698 127.422 396.102 129.336 396.102 131.367V155.117C396.102 157.148 395.698 159.076 394.891 160.898C394.083 162.695 392.924 164.271 391.414 165.625C389.93 166.979 388.12 168.047 385.984 168.828C383.849 169.609 381.466 170 378.836 170H366.805C364.174 170 361.792 169.609 359.656 168.828C357.521 168.047 355.698 166.979 354.188 165.625C352.703 164.271 351.557 162.695 350.75 160.898C349.943 159.076 349.539 157.148 349.539 155.117V131.367C349.539 129.336 349.943 127.422 350.75 125.625C351.557 123.802 352.703 122.214 354.188 120.859C355.698 119.505 357.521 118.438 359.656 117.656C361.792 116.875 364.174 116.484 366.805 116.484H378.836ZM372.742 120.625L370.594 120H365.477L362.195 120.547L359.695 123.047V152.305H363.875V124.492C364.24 124.414 364.565 124.362 364.852 124.336C365.138 124.31 365.451 124.245 365.789 124.141H370.242C370.529 124.245 370.802 124.31 371.062 124.336C371.349 124.362 371.635 124.414 371.922 124.492V141.055H376.102V124.492L377.781 124.141H382.273C382.586 124.245 382.898 124.31 383.211 124.336C383.523 124.362 383.849 124.414 384.188 124.492V152.305H388.328V123.047L385.867 120.547L382.586 120H377.469L375.359 120.625L374.031 123.32L372.742 120.625ZM433.055 135.43L446.492 122.148L443.68 118.867L427.586 134.805V120H423.445V152.305H427.586V140.078C428.029 139.714 428.406 139.388 428.719 139.102C429.057 138.789 429.435 138.451 429.852 138.086L442.625 153.047L445.984 150.156L433.055 135.43ZM436.648 116.484C439.279 116.484 441.661 116.875 443.797 117.656C445.932 118.438 447.742 119.505 449.227 120.859C450.737 122.214 451.896 123.802 452.703 125.625C453.51 127.422 453.914 129.336 453.914 131.367V155.117C453.914 157.148 453.51 159.076 452.703 160.898C451.896 162.695 450.737 164.271 449.227 165.625C447.742 166.979 445.932 168.047 443.797 168.828C441.661 169.609 439.279 170 436.648 170H424.617C421.987 170 419.604 169.609 417.469 168.828C415.333 168.047 413.51 166.979 412 165.625C410.516 164.271 409.37 162.695 408.562 160.898C407.755 159.076 407.352 157.148 407.352 155.117V131.367C407.352 129.336 407.755 127.422 408.562 125.625C409.37 123.802 410.516 122.214 412 120.859C413.51 119.505 415.333 118.438 417.469 117.656C419.604 116.875 421.987 116.484 424.617 116.484H436.648ZM487.703 152.266V143.359V126.25V122.969L485.047 120.469L481.141 120H472.234L467.664 120.547L468.641 124.805L472.312 124.062H481.023L483.367 124.57L483.914 126.641V135.742L481.141 135.273H472.234L468.328 135.859L465.828 138.32L465.281 141.523V146.094L465.828 149.375L468.328 151.836L472.234 152.305H480.789L483.836 151.836L487.703 152.266ZM483.914 147.773L480.867 148.164H472.469L470.008 147.773L469.461 145.43V142.07L469.773 139.844L472.469 139.453H480.945L483.914 139.766V145.664V147.773ZM482.898 116.484C485.529 116.484 487.911 116.875 490.047 117.656C492.182 118.438 493.992 119.505 495.477 120.859C496.987 122.214 498.146 123.802 498.953 125.625C499.76 127.422 500.164 129.336 500.164 131.367V155.117C500.164 157.148 499.76 159.076 498.953 160.898C498.146 162.695 496.987 164.271 495.477 165.625C493.992 166.979 492.182 168.047 490.047 168.828C487.911 169.609 485.529 170 482.898 170H470.867C468.237 170 465.854 169.609 463.719 168.828C461.583 168.047 459.76 166.979 458.25 165.625C456.766 164.271 455.62 162.695 454.812 160.898C454.005 159.076 453.602 157.148 453.602 155.117V131.367C453.602 129.336 454.005 127.422 454.812 125.625C455.62 123.802 456.766 122.214 458.25 120.859C459.76 119.505 461.583 118.438 463.719 117.656C465.854 116.875 468.237 116.484 470.867 116.484H482.898ZM529.148 116.484C531.779 116.484 534.161 116.875 536.297 117.656C538.432 118.438 540.242 119.505 541.727 120.859C543.237 122.214 544.396 123.802 545.203 125.625C546.01 127.422 546.414 129.336 546.414 131.367V155.117C546.414 157.148 546.01 159.076 545.203 160.898C544.396 162.695 543.237 164.271 541.727 165.625C540.242 166.979 538.432 168.047 536.297 168.828C534.161 169.609 531.779 170 529.148 170H517.117C514.487 170 512.104 169.609 509.969 168.828C507.833 168.047 506.01 166.979 504.5 165.625C503.016 164.271 501.87 162.695 501.062 160.898C500.255 159.076 499.852 157.148 499.852 155.117V131.367C499.852 129.336 500.255 127.422 501.062 125.625C501.87 123.802 503.016 122.214 504.5 120.859C506.01 119.505 507.833 118.438 509.969 117.656C512.104 116.875 514.487 116.484 517.117 116.484H529.148ZM531.141 142.656V152.305H535.281V142.227L533.914 138.633L529.461 137.031L533.758 134.961L534.969 131.445V127.109L534.5 123.828L531.922 120.547L528.016 120H513.445V152.305H517.625V139.297H527.781L530.555 140.547L531.141 142.656ZM527.781 124.141L530.555 125.352L530.828 127.617V131.758L530.242 133.906L527.781 135.117H517.625V124.141H527.781ZM580.203 152.266V143.359V126.25V122.969L577.547 120.469L573.641 120H564.734L560.164 120.547L561.141 124.805L564.812 124.062H573.523L575.867 124.57L576.414 126.641V135.742L573.641 135.273H564.734L560.828 135.859L558.328 138.32L557.781 141.523V146.094L558.328 149.375L560.828 151.836L564.734 152.305H573.289L576.336 151.836L580.203 152.266ZM576.414 147.773L573.367 148.164H564.969L562.508 147.773L561.961 145.43V142.07L562.273 139.844L564.969 139.453H573.445L576.414 139.766V145.664V147.773ZM575.398 116.484C578.029 116.484 580.411 116.875 582.547 117.656C584.682 118.438 586.492 119.505 587.977 120.859C589.487 122.214 590.646 123.802 591.453 125.625C592.26 127.422 592.664 129.336 592.664 131.367V155.117C592.664 157.148 592.26 159.076 591.453 160.898C590.646 162.695 589.487 164.271 587.977 165.625C586.492 166.979 584.682 168.047 582.547 168.828C580.411 169.609 578.029 170 575.398 170H563.367C560.737 170 558.354 169.609 556.219 168.828C554.083 168.047 552.26 166.979 550.75 165.625C549.266 164.271 548.12 162.695 547.312 160.898C546.505 159.076 546.102 157.148 546.102 155.117V131.367C546.102 129.336 546.505 127.422 547.312 125.625C548.12 123.802 549.266 122.214 550.75 120.859C552.26 119.505 554.083 118.438 556.219 117.656C558.354 116.875 560.737 116.484 563.367 116.484H575.398ZM628.914 126.25L628.367 122.969L625.867 120.469L621.883 120H612.117L605.086 120.977V152.305H609.227V124.57L612.273 124.062H621.648L624.344 124.492L624.734 126.797V152.305H628.914V126.25ZM621.648 116.484C624.279 116.484 626.661 116.875 628.797 117.656C630.932 118.438 632.742 119.505 634.227 120.859C635.737 122.214 636.896 123.802 637.703 125.625C638.51 127.422 638.914 129.336 638.914 131.367V155.117C638.914 157.148 638.51 159.076 637.703 160.898C636.896 162.695 635.737 164.271 634.227 165.625C632.742 166.979 630.932 168.047 628.797 168.828C626.661 169.609 624.279 170 621.648 170H609.617C606.987 170 604.604 169.609 602.469 168.828C600.333 168.047 598.51 166.979 597 165.625C595.516 164.271 594.37 162.695 593.562 160.898C592.755 159.076 592.352 157.148 592.352 155.117V131.367C592.352 129.336 592.755 127.422 593.562 125.625C594.37 123.802 595.516 122.214 597 120.859C598.51 119.505 600.333 118.438 602.469 117.656C604.604 116.875 606.987 116.484 609.617 116.484H621.648ZM655.867 116.484C658.445 116.536 660.776 116.966 662.859 117.773C664.969 118.555 666.766 119.622 668.25 120.977C669.734 122.305 670.867 123.867 671.648 125.664C672.456 127.435 672.859 129.336 672.859 131.367V155.117C672.859 157.148 672.456 159.076 671.648 160.898C670.841 162.695 669.682 164.271 668.172 165.625C666.661 166.979 664.839 168.047 662.703 168.828C660.594 169.609 658.211 170 655.555 170C652.951 170 650.607 169.609 648.523 168.828C646.44 168.021 644.656 166.94 643.172 165.586C641.714 164.206 640.581 162.617 639.773 160.82C638.992 159.023 638.602 157.122 638.602 155.117V131.367C638.602 129.336 639.005 127.422 639.812 125.625C640.62 123.802 641.766 122.214 643.25 120.859C644.76 119.505 646.583 118.438 648.719 117.656C650.854 116.875 653.237 116.484 655.867 116.484ZM653.25 120L654.852 145.508H657.156L658.758 120H653.25ZM653.953 152.891H658.758L658.133 148.711H653.953V152.891ZM689.852 116.484C692.43 116.536 694.76 116.966 696.844 117.773C698.953 118.555 700.75 119.622 702.234 120.977C703.719 122.305 704.852 123.867 705.633 125.664C706.44 127.435 706.844 129.336 706.844 131.367V155.117C706.844 157.148 706.44 159.076 705.633 160.898C704.826 162.695 703.667 164.271 702.156 165.625C700.646 166.979 698.823 168.047 696.688 168.828C694.578 169.609 692.195 170 689.539 170C686.935 170 684.591 169.609 682.508 168.828C680.424 168.021 678.641 166.94 677.156 165.586C675.698 164.206 674.565 162.617 673.758 160.82C672.977 159.023 672.586 157.122 672.586 155.117V131.367C672.586 129.336 672.99 127.422 673.797 125.625C674.604 123.802 675.75 122.214 677.234 120.859C678.745 119.505 680.568 118.438 682.703 117.656C684.839 116.875 687.221 116.484 689.852 116.484ZM687.234 120L688.836 145.508H691.141L692.742 120H687.234ZM687.938 152.891H692.742L692.117 148.711H687.938V152.891Z" fill="white"/>
<defs>
<filter id="filter0_d_1_34" x="0" y="0" width="808" height="307" filterUnits="userSpaceOnUse" color-interpolation-filters="sRGB">
<feFlood flood-opacity="0" result="BackgroundImageFix"/>
<feColorMatrix in="SourceAlpha" type="matrix" values="0 0 0 0 0 0 0 0 0 0 0 0 0 0 0 0 0 0 127 0" result="hardAlpha"/>
<feOffset dy="4"/>
<feGaussianBlur stdDeviation="2"/>
<feComposite in2="hardAlpha" operator="out"/>
<feColorMatrix type="matrix" values="0 0 0 0 0 0 0 0 0 0 0 0 0 0 0 0 0 0 0.25 0"/>
<feBlend mode="normal" in2="BackgroundImageFix" result="effect1_dropShadow_1_34"/>
<feBlend mode="normal" in="SourceGraphic" in2="effect1_dropShadow_1_34" result="shape"/>
</filter>
<linearGradient id="paint0_linear_1_34" x1="4" y1="89.9336" x2="804" y2="89.9335" gradientUnits="userSpaceOnUse">
<stop stop-color="#748FB7"/>
<stop offset="1" stop-color="#82859F"/>
</linearGradient>
</defs>
</svg>
